<svg width="32" height="32" viewBox="0 0 32 32" fill="none" xmlns="http://www.w3.org/2000/svg">
<rect x="0.5" y="0.5" width="31" height="31" rx="7.5" stroke="#2F2F37"/>
<path d="M18.6667 13.4967V18.3333C18.6665 19.2334 18.386 20.111 17.8643 20.8444C17.3425 21.5777 16.6054 22.1305 15.7552 22.4258C14.905 22.7211 13.9839 22.7444 13.1199 22.4923C12.2559 22.2403 11.4918 21.7255 10.9337 21.0194C10.3756 20.3133 10.0512 19.4509 10.0056 18.5521C9.95994 17.6532 10.1953 16.7624 10.679 16.0034C11.1628 15.2444 11.8708 14.6549 12.7049 14.3167C13.5389 13.9784 14.4576 13.9083 15.3333 14.116V16.2247C14.8765 16.008 14.3617 15.9455 13.8664 16.0467C13.3711 16.1479 12.922 16.4072 12.5867 16.7856C12.2515 17.1641 12.0482 17.6412 12.0076 18.1451C11.9669 18.649 12.091 19.1525 12.3612 19.5799C12.6314 20.0072 13.033 20.3352 13.5058 20.5145C13.9785 20.6938 14.4966 20.7147 14.9822 20.5741C15.4679 20.4335 15.8947 20.139 16.1985 19.7349C16.5023 19.3308 16.6666 18.8389 16.6667 18.3333V9.33333H18.6667C18.6667 10.2174 19.0179 11.0652 19.643 11.6904C20.2681 12.3155 21.1159 12.6667 22 12.6667V14.6667C20.7879 14.6685 19.6117 14.2556 18.6667 13.4967Z" fill="#2F2F37"/>
</svg>
