<svg width="32" height="32" viewBox="0 0 32 32" fill="none" xmlns="http://www.w3.org/2000/svg">
<rect x="0.5" y="0.5" width="31" height="31" rx="7.5" stroke="#2F2F37"/>
<path d="M13.026 23C19.064 23 22.367 17.997 22.367 13.666C22.367 13.526 22.367 13.384 22.361 13.244C23.0041 12.7785 23.5591 12.2022 24 11.542C23.3993 11.8068 22.7628 11.9814 22.111 12.06C22.7975 11.6496 23.3117 11.004 23.558 10.243C22.913 10.6251 22.207 10.8934 21.471 11.036C20.9762 10.509 20.3214 10.1599 19.6081 10.0428C18.8948 9.9256 18.1627 10.0469 17.5253 10.3879C16.888 10.729 16.3808 11.2706 16.0824 11.9291C15.7841 12.5875 15.7112 13.3259 15.875 14.03C14.5697 13.9646 13.2928 13.6255 12.127 13.0347C10.9613 12.444 9.93268 11.6148 9.108 10.601C8.68934 11.3241 8.56157 12.1794 8.75065 12.9933C8.93972 13.8071 9.43145 14.5185 10.126 14.983C9.60554 14.9653 9.09652 14.8256 8.64 14.575V14.62C8.6409 15.3775 8.90331 16.1114 9.38287 16.6978C9.86244 17.2841 10.5297 17.6869 11.272 17.838C10.9903 17.9156 10.6992 17.9543 10.407 17.953C10.201 17.9536 9.99538 17.9345 9.793 17.896C10.0028 18.5481 10.4113 19.1182 10.9612 19.5265C11.5112 19.9348 12.1751 20.1608 12.86 20.173C11.6966 21.0868 10.2594 21.5824 8.78 21.58C8.51932 21.5811 8.25882 21.5661 8 21.535C9.50151 22.4923 11.2453 23.0005 13.026 23Z" fill="#2F2F37"/>
</svg>
