<svg width="32" height="32" viewBox="0 0 32 32" fill="none" xmlns="http://www.w3.org/2000/svg">
<rect x="0.5" y="0.5" width="31" height="31" rx="7.5" stroke="#2F2F37"/>
<path d="M16.1627 10.6667C16.5187 10.6687 17.4094 10.6773 18.356 10.7153L18.692 10.73C19.6447 10.7747 20.5967 10.852 21.0694 10.9833C21.6994 11.1607 22.194 11.6767 22.3614 12.3313C22.628 13.3713 22.6614 15.3993 22.6654 15.8907L22.666 15.992V16.108C22.6614 16.5993 22.628 18.628 22.3614 19.6673C22.192 20.324 21.6967 20.8407 21.0694 21.0153C20.5967 21.1467 19.6447 21.224 18.692 21.2687L18.356 21.284C17.4094 21.3213 16.5187 21.3307 16.1627 21.332L16.006 21.3327H15.836C15.0827 21.328 11.932 21.294 10.9294 21.0153C10.3 20.838 9.80471 20.322 9.63737 19.6673C9.37071 18.6273 9.33737 16.5993 9.33337 16.108V15.8907C9.33737 15.3993 9.37071 13.3707 9.63737 12.3313C9.80671 11.6747 10.302 11.158 10.93 10.984C11.932 10.7047 15.0834 10.6707 15.8367 10.6667H16.1627ZM14.666 13.6667V18.3333L18.666 16L14.666 13.6667Z" fill="#2F2F37"/>
</svg>
